<svg  viewBox="0 0 16 9" fill="none" xmlns="http://www.w3.org/2000/svg">
<path d="M8.02629 0C8.77727 0 9.52624 0.199 10.1862 0.602C10.7962 0.974231 11.3014 1.4956 11.6542 2.117L11.6572 2.119H11.6582L11.8672 2.072C12.0762 2.029 12.2872 2.003 12.5002 2.003C13.5571 2.003 14.6151 2.48 15.3221 3.434C15.7625 4.03318 16 4.75737 16 5.501C16 6.24463 15.7625 6.96882 15.3221 7.568C14.9978 8.01215 14.5731 8.37338 14.0827 8.62223C13.5923 8.87109 13.0501 9.00053 12.5002 9H3.01444C1.99047 9 0.967505 8.478 0.376523 7.435C0.129694 6.99755 0 6.50378 0 6.0015C0 5.49922 0.129694 5.00544 0.376523 4.568C0.967505 3.524 1.99047 3.002 3.01444 3.002C3.44943 3.002 3.88142 3.102 4.2814 3.295C4.35078 3.32862 4.41148 3.37778 4.4588 3.43864C4.50611 3.49951 4.53877 3.57046 4.55424 3.64599C4.56972 3.72152 4.56759 3.7996 4.54802 3.87417C4.52845 3.94874 4.49196 4.0178 4.4414 4.076L4.10141 4.462C4.03496 4.53773 3.94718 4.59162 3.84957 4.6166C3.75196 4.64158 3.64909 4.63649 3.55443 4.602C3.38443 4.536 3.20144 4.502 3.01444 4.502C2.86245 4.502 2.70645 4.524 2.55046 4.571C2.28554 4.65857 2.05019 4.81806 1.87067 5.03167C1.69116 5.24527 1.57457 5.50457 1.5339 5.78062C1.49324 6.05666 1.53011 6.33857 1.6404 6.59487C1.75069 6.85116 1.93006 7.07175 2.15847 7.232C2.41646 7.415 2.73145 7.501 3.04844 7.501H12.4952C13.3971 7.501 14.2061 6.904 14.4301 6.03C14.5107 5.73319 14.5219 5.42181 14.4628 5.11998C14.4037 4.81816 14.2758 4.534 14.0892 4.28954C13.9026 4.04507 13.6622 3.84688 13.3866 3.7103C13.111 3.57373 12.8077 3.50246 12.5002 3.502C12.3912 3.502 12.2862 3.517 12.1822 3.534C11.7022 3.612 11.2832 3.86 10.9822 4.216C10.9693 4.23197 10.953 4.24484 10.9345 4.25367C10.916 4.2625 10.8957 4.26705 10.8752 4.267C10.8398 4.26783 10.8055 4.25481 10.7795 4.23072C10.7536 4.20663 10.738 4.17337 10.7362 4.138C10.708 3.66318 10.5601 3.20323 10.3062 2.801C10.1097 2.46785 9.84367 2.181 9.52624 1.96C9.08886 1.67253 8.57565 1.52212 8.05229 1.528C7.7553 1.528 7.45731 1.573 7.17332 1.661C6.56134 1.849 6.14435 2.17 5.85036 2.554C5.77411 2.65249 5.66366 2.71875 5.54088 2.73968C5.4181 2.76061 5.29194 2.73467 5.18738 2.667C5.06018 2.58381 4.9283 2.50802 4.79239 2.44C4.72772 2.40752 4.67092 2.3613 4.62597 2.30458C4.58102 2.24787 4.549 2.18202 4.53214 2.11164C4.51528 2.04126 4.514 1.96804 4.52838 1.89712C4.54276 1.82619 4.57246 1.75926 4.61539 1.701C4.97971 1.21144 5.44746 0.808203 5.98535 0.52C6.61156 0.178925 7.31323 0.000150543 8.02629 0Z" fill="#157BFB"/>
</svg>
